<svg width="209" height="120" viewBox="0 0 209 120" fill="none" xmlns="http://www.w3.org/2000/svg">
<path fill-rule="evenodd" clip-rule="evenodd" d="M103.991 96.6932C71.5529 117.801 41.9286 126.124 33.3735 115.172C28.4482 108.869 31.409 97.3358 40.2126 83.6531C15.7356 78.1624 0 69.6088 0 60C0 50.3912 15.7357 41.8375 40.2128 36.3469C31.4091 22.664 28.4481 11.131 33.3733 4.82711C41.9289 -6.1236 71.553 2.19876 103.991 23.3066C136.429 2.19876 166.054 -6.1236 174.609 4.82711C179.511 11.1006 176.602 22.553 167.896 36.1493C192.882 41.6311 209 50.2752 209 60C209 69.7248 192.882 78.3689 167.897 83.8507C176.602 97.4468 179.51 108.899 174.609 115.172C166.054 126.124 136.43 117.801 103.991 96.6932Z" fill="#39D2FB"/>
</svg>
