<svg width="209" height="120" viewBox="0 0 209 120" fill="none" xmlns="http://www.w3.org/2000/svg">
<path fill-rule="evenodd" clip-rule="evenodd" d="M33.2781 0H75H134H135H175.722C188.636 0 191.616 7.10454 191.616 20.1639C192.411 48.0984 203.536 55.4098 209 55.5738V60V64.4262C203.536 64.5902 192.411 71.9016 191.616 99.8361C191.616 112.895 188.636 120 175.722 120H135H134H75H33.2781C20.3642 120 17.3841 112.895 17.3841 99.8361C16.5894 71.9016 5.46358 64.5902 0 64.4262V60V55.5738C5.46358 55.4098 16.5894 48.0984 17.3841 20.1639C17.3841 7.10454 20.3642 0 33.2781 0Z" fill="#CFB9FF"/>
</svg>
