<svg width="209" height="120" viewBox="0 0 209 120" fill="none" xmlns="http://www.w3.org/2000/svg">
<path d="M0 24C0 15.5992 0 11.3988 1.6349 8.19014C3.073 5.36771 5.36771 3.073 8.19014 1.6349C11.3988 0 15.5992 0 24 0H185C193.401 0 197.601 0 200.81 1.6349C203.632 3.073 205.927 5.36771 207.365 8.19014C209 11.3988 209 15.5992 209 24V112C209 114.8 209 116.2 208.455 117.27C207.976 118.211 207.211 118.976 206.27 119.455C205.2 120 203.8 120 201 120H8C5.19974 120 3.79961 120 2.73005 119.455C1.78924 118.976 1.02433 118.211 0.544967 117.27C0 116.2 0 114.8 0 112V24Z" fill="#EADDD0"/>
</svg>
