<svg width="209" height="120" viewBox="0 0 209 120" fill="none" xmlns="http://www.w3.org/2000/svg">
<path fill-rule="evenodd" clip-rule="evenodd" d="M4.43446 55.6798C1.93665 57.0924 0.687749 57.7987 0.271913 58.7271C-0.0906377 59.5365 -0.0906378 60.4635 0.271913 61.2729C0.68775 62.2013 1.93665 62.9076 4.43445 64.3202L99.6761 118.183C101.436 119.178 102.316 119.676 103.248 119.871C104.074 120.043 104.926 120.043 105.751 119.871C106.684 119.676 107.564 119.178 109.324 118.183L204.566 64.3202C207.063 62.9076 208.312 62.2013 208.728 61.2729C209.091 60.4635 209.091 59.5365 208.728 58.7271C208.312 57.7987 207.063 57.0924 204.566 55.6798L109.324 1.81716C107.564 0.821989 106.684 0.324405 105.751 0.129419C104.926 -0.0431398 104.074 -0.0431398 103.248 0.129419C102.316 0.324405 101.436 0.821989 99.6761 1.81716L4.43446 55.6798Z" fill="#FFC2E1"/>
</svg>
