<svg width="209" height="120" viewBox="0 0 209 120" fill="none" xmlns="http://www.w3.org/2000/svg">
<path d="M18.7949 6.6909C19.1892 4.31397 19.3863 3.1255 19.9788 2.23358C20.501 1.44736 21.2351 0.825012 22.0961 0.438491C23.073 0 24.2777 0 26.6871 0H182.313C184.722 0 185.927 0 186.904 0.438491C187.765 0.825012 188.499 1.44736 189.021 2.23358C189.614 3.1255 189.811 4.31397 190.205 6.6909L207.456 110.691C207.987 113.894 208.253 115.495 207.788 116.743C207.381 117.839 206.603 118.757 205.589 119.338C204.434 120 202.811 120 199.564 120H9.4363C6.1895 120 4.5661 120 3.41089 119.338C2.39713 118.757 1.61896 117.839 1.2115 116.743C0.747183 115.495 1.01283 113.894 1.54413 110.691L18.7949 6.6909Z" fill="#C9E7FF"/>
</svg>
