<svg width="209" height="120" viewBox="0 0 209 120" fill="none" xmlns="http://www.w3.org/2000/svg">
<path d="M0.793117 8.72428C0.51803 5.69833 0.380487 4.18536 0.885141 3.01715C1.32848 1.99088 2.10297 1.14278 3.0849 0.608346C4.20262 0 5.72183 0 8.76026 0H200.24C203.278 0 204.797 0 205.915 0.608346C206.897 1.14278 207.672 1.99088 208.115 3.01715C208.62 4.18536 208.482 5.69833 208.207 8.72429L199.595 103.46C199.383 105.789 199.277 106.954 198.773 107.87C198.328 108.678 197.669 109.348 196.867 109.804C195.958 110.322 194.795 110.445 192.469 110.691L105.342 119.911C105.027 119.944 104.869 119.961 104.711 119.968C104.57 119.974 104.43 119.974 104.289 119.968C104.131 119.961 103.973 119.944 103.658 119.911L16.5307 110.691C14.2046 110.445 13.0416 110.322 12.1328 109.804C11.3315 109.348 10.672 108.678 10.2273 107.87C9.72309 106.954 9.6172 105.789 9.40544 103.46L0.793117 8.72428Z" fill="#FFF6AD"/>
</svg>
