<svg width="209" height="120" viewBox="0 0 209 120" fill="none" xmlns="http://www.w3.org/2000/svg">
<path d="M17.7274 5.47018C18.3865 3.50313 18.7161 2.5196 19.3273 1.79245C19.8671 1.15034 20.5603 0.653305 21.3433 0.346938C22.23 0 23.2722 0 25.3564 0H183.644C185.728 0 186.77 0 187.657 0.346938C188.44 0.653305 189.133 1.15034 189.673 1.79245C190.284 2.5196 190.613 3.50313 191.273 5.47018L207.848 54.9404C208.477 56.8176 208.792 57.7563 208.917 58.7165C209.028 59.5686 209.028 60.4314 208.917 61.2835C208.792 62.2437 208.477 63.1824 207.848 65.0596L191.273 114.53C190.613 116.497 190.284 117.48 189.673 118.208C189.133 118.85 188.44 119.347 187.657 119.653C186.77 120 185.728 120 183.644 120H25.3564C23.2722 120 22.23 120 21.3433 119.653C20.5603 119.347 19.8671 118.85 19.3273 118.208C18.7161 117.48 18.3865 116.497 17.7274 114.53L1.15158 65.0596C0.522563 63.1824 0.208053 62.2437 0.0831348 61.2835C-0.0277116 60.4314 -0.0277116 59.5686 0.0831348 58.7165C0.208053 57.7563 0.522563 56.8176 1.15158 54.9404L17.7274 5.47018Z" fill="#F9C4AD"/>
</svg>
