<svg width="209" height="120" viewBox="0 0 209 120" fill="none" xmlns="http://www.w3.org/2000/svg">
<path fill-rule="evenodd" clip-rule="evenodd" d="M2.72484 13.6502C0 18.998 0 25.9987 0 40V80C0 94.0013 0 101.002 2.72484 106.35C5.12167 111.054 8.94619 114.878 13.6502 117.275C18.998 120 25.9987 120 40 120H169C183.001 120 190.002 120 195.35 117.275C200.054 114.878 203.878 111.054 206.275 106.35C209 101.002 209 94.0013 209 80V40C209 25.9987 209 18.998 206.275 13.6502C203.878 8.94619 200.054 5.12167 195.35 2.72484C190.002 0 183.001 0 169 0H40C25.9987 0 18.998 0 13.6502 2.72484C8.94619 5.12167 5.12167 8.94619 2.72484 13.6502ZM198 63C199.657 63 201 61.6569 201 60C201 58.3431 199.657 57 198 57C196.343 57 195 58.3431 195 60C195 61.6569 196.343 63 198 63Z" fill="#D7FFDD"/>
</svg>
